<svg width="83" height="27" viewBox="0 0 83 27" fill="none" xmlns="http://www.w3.org/2000/svg">
<path d="M11.952 22H10.104L3.768 14.752L2.76 15.592V22H1.2V5.176H2.76V13.432L9.96 5.152H11.952L4.872 13.456L11.952 22ZM30.9122 13.624C30.9122 14.84 30.6962 15.976 30.2642 17.032C29.8482 18.072 29.2642 18.984 28.5122 19.768C27.7602 20.552 26.8882 21.16 25.8962 21.592C24.9042 22.024 23.8402 22.24 22.7042 22.24C21.5522 22.24 20.4802 22.024 19.4882 21.592C18.4962 21.144 17.6242 20.528 16.8722 19.744C16.1202 18.944 15.5282 18.024 15.0962 16.984C14.6802 15.944 14.4722 14.824 14.4722 13.624C14.4722 12.424 14.6882 11.304 15.1202 10.264C15.5522 9.208 16.1522 8.288 16.9202 7.504C17.6882 6.704 18.5682 6.08 19.5602 5.632C20.5522 5.184 21.6002 4.96 22.7042 4.96C23.8402 4.96 24.9042 5.192 25.8962 5.656C26.9042 6.104 27.7762 6.728 28.5122 7.528C29.2642 8.328 29.8482 9.248 30.2642 10.288C30.6962 11.328 30.9122 12.44 30.9122 13.624ZM29.3042 13.624C29.3042 12.648 29.1362 11.728 28.8002 10.864C28.4642 9.984 27.9922 9.216 27.3842 8.56C26.7762 7.888 26.0722 7.36 25.2722 6.976C24.4882 6.592 23.6322 6.4 22.7042 6.4C21.7762 6.4 20.9122 6.592 20.1122 6.976C19.3122 7.344 18.6082 7.864 18.0002 8.536C17.4082 9.208 16.9362 9.984 16.5842 10.864C16.2482 11.728 16.0802 12.648 16.0802 13.624C16.0802 14.6 16.2482 15.52 16.5842 16.384C16.9202 17.248 17.3922 18.016 18.0002 18.688C18.6082 19.344 19.3122 19.864 20.1122 20.248C20.9122 20.632 21.7762 20.824 22.7042 20.824C23.6322 20.824 24.4962 20.64 25.2962 20.272C26.0962 19.888 26.7922 19.368 27.3842 18.712C27.9922 18.04 28.4642 17.272 28.8002 16.408C29.1362 15.544 29.3042 14.616 29.3042 13.624ZM46.5998 22H44.7278L40.2638 14.752H37.1678V22H35.5838L35.6078 5.2H42.0638C42.7998 5.2 43.4798 5.424 44.1038 5.872C44.7438 6.304 45.2558 6.888 45.6398 7.624C46.0238 8.344 46.2158 9.128 46.2158 9.976C46.2158 10.744 46.0318 11.48 45.6638 12.184C45.2958 12.888 44.7998 13.472 44.1758 13.936C43.5678 14.4 42.8718 14.656 42.0878 14.704L46.5998 22ZM44.6318 9.976C44.6318 9.448 44.5198 8.944 44.2958 8.464C44.0718 7.968 43.7598 7.568 43.3598 7.264C42.9758 6.944 42.5278 6.784 42.0158 6.784H37.1678V13.168H41.9678C42.4478 13.168 42.8878 13 43.2878 12.664C43.6878 12.328 44.0078 11.92 44.2478 11.44C44.5038 10.944 44.6318 10.456 44.6318 9.976ZM50.9419 22L56.7019 5.2H58.7419L64.5019 22H62.8219L61.3579 17.68H54.0859L52.6219 22H50.9419ZM57.7099 7.072L54.5419 16.36H60.9019L57.7099 7.072ZM68.8369 22L74.1649 13.48L69.0049 5.2H70.8529L75.1489 12.232L79.4689 5.2H81.2929L76.1089 13.48L81.4609 22H79.5889L75.1489 14.776L70.7089 22H68.8369Z" fill="#161616"/>
</svg>
