<svg width="59" height="25" viewBox="0 0 59 25" fill="none" xmlns="http://www.w3.org/2000/svg">
<path d="M5.104 3.302H6.996V4.534C7.62667 4.59267 8.272 4.732 8.932 4.952C9.592 5.172 10.2373 5.48 10.868 5.876L9.218 7.636C8.88067 7.47467 8.52133 7.328 8.14 7.196C7.77333 7.04933 7.392 6.94667 6.996 6.888V10.98C7.89067 11.244 8.65333 11.552 9.284 11.904C9.91467 12.256 10.3913 12.718 10.714 13.29C11.0513 13.8473 11.22 14.588 11.22 15.512C11.22 16.304 11.0293 17.03 10.648 17.69C10.2813 18.3353 9.77533 18.878 9.13 19.318C8.49933 19.758 7.788 20.0367 6.996 20.154V21.342H5.104V20.132C4.29733 20 3.51267 19.7433 2.75 19.362C2.002 18.966 1.37867 18.504 0.88 17.976L2.64 16.304C2.97733 16.6413 3.35867 16.9273 3.784 17.162C4.224 17.3967 4.664 17.5653 5.104 17.668V12.894C4.20933 12.6007 3.43933 12.2633 2.794 11.882C2.16333 11.486 1.694 11.002 1.386 10.43C1.09267 9.84333 0.99 9.11733 1.078 8.252C1.19533 7.152 1.62067 6.294 2.354 5.678C3.08733 5.04733 4.004 4.666 5.104 4.534V3.302ZM3.454 8.538C3.43933 9.05133 3.57867 9.44733 3.872 9.726C4.18 9.99 4.59067 10.21 5.104 10.386V6.91C4.64933 7.01267 4.26067 7.196 3.938 7.46C3.63 7.724 3.46867 8.08333 3.454 8.538ZM8.866 15.512C8.866 15.0133 8.69733 14.5953 8.36 14.258C8.03733 13.906 7.58267 13.6347 6.996 13.444V17.69C7.53867 17.5433 7.986 17.272 8.338 16.876C8.69 16.48 8.866 16.0253 8.866 15.512ZM18.5857 20H16.2757V7.416L14.5597 9.396L12.9757 7.856L15.9457 4.6H18.5857V20ZM31.5428 16.018H29.3428V20H27.0108V16.018H20.3448V13.972L26.0648 4.6H29.3428V13.752H31.5428V16.018ZM27.0108 13.752V7.46H26.8348L22.9408 13.752H27.0108ZM38.1619 20.154C37.1499 20.154 36.2699 19.9707 35.5219 19.604C34.7739 19.2227 34.0333 18.6067 33.2999 17.756L34.9719 16.04C35.4999 16.612 35.9913 17.0373 36.4459 17.316C36.9006 17.5947 37.4726 17.734 38.1619 17.734C38.6606 17.734 39.1373 17.602 39.5919 17.338C40.0466 17.074 40.4133 16.7293 40.6919 16.304C40.9853 15.864 41.1319 15.38 41.1319 14.852C41.1319 14.148 40.9559 13.554 40.6039 13.07C40.2519 12.5713 39.8119 12.2193 39.2839 12.014C38.7706 11.8087 38.2426 11.7793 37.6999 11.926C37.1719 12.0727 36.7246 12.4393 36.3579 13.026L34.3559 12.234L35.0159 4.6H43.0239V7.02H37.2379L36.8859 9.836C37.9126 9.51333 38.8293 9.42533 39.6359 9.572C40.4426 9.704 41.1246 10.0193 41.6819 10.518C42.2539 11.002 42.6866 11.618 42.9799 12.366C43.2733 13.114 43.4199 13.9427 43.4199 14.852C43.4199 15.6 43.2733 16.2967 42.9799 16.942C42.7013 17.5727 42.3126 18.13 41.8139 18.614C41.3299 19.098 40.7726 19.4793 40.1419 19.758C39.5113 20.022 38.8513 20.154 38.1619 20.154ZM56.4709 17.712C55.9282 18.4453 55.2462 19.032 54.4249 19.472C53.6036 19.8973 52.6356 20.11 51.5209 20.11C50.3769 20.11 49.4016 19.8973 48.5949 19.472C47.7882 19.032 47.1136 18.4453 46.5709 17.712C46.0429 16.9787 45.6469 16.15 45.3829 15.226C45.1336 14.302 45.0089 13.3267 45.0089 12.3C45.0089 11.2733 45.1336 10.298 45.3829 9.374C45.6469 8.43533 46.0502 7.59933 46.5929 6.866C47.1209 6.14733 47.7956 5.57533 48.6169 5.15C49.4382 4.71 50.4062 4.49 51.5209 4.49C52.6356 4.49 53.6036 4.71 54.4249 5.15C55.2462 5.57533 55.9282 6.15467 56.4709 6.888C56.9989 7.62133 57.3876 8.45733 57.6369 9.396C57.9009 10.32 58.0329 11.288 58.0329 12.3C58.0329 13.3267 57.9009 14.302 57.6369 15.226C57.3876 16.1353 56.9989 16.964 56.4709 17.712ZM54.6669 8.406C54.3296 7.93667 53.8969 7.57 53.3689 7.306C52.8556 7.02733 52.2396 6.888 51.5209 6.888C50.7729 6.888 50.1422 7.02733 49.6289 7.306C49.1302 7.57 48.7122 7.93667 48.3749 8.406C48.0082 8.91933 47.7442 9.506 47.5829 10.166C47.4362 10.8113 47.3629 11.5227 47.3629 12.3C47.3629 13.0773 47.4436 13.796 47.6049 14.456C47.7662 15.116 48.0229 15.6953 48.3749 16.194C48.7122 16.6633 49.1302 17.0373 49.6289 17.316C50.1422 17.5947 50.7729 17.734 51.5209 17.734C52.2396 17.734 52.8556 17.602 53.3689 17.338C53.8969 17.0593 54.3296 16.678 54.6669 16.194C55.0042 15.6807 55.2536 15.1013 55.4149 14.456C55.5762 13.796 55.6569 13.0773 55.6569 12.3C55.6716 11.5227 55.5982 10.804 55.4369 10.144C55.2756 9.484 55.0189 8.90467 54.6669 8.406Z" fill="white"/>
<line x1="1.73179" y1="20.0366" x2="58.0741" y2="4.35012" stroke="white" stroke-width="2"/>
</svg>
