<svg width="45" height="25" viewBox="0 0 45 25" fill="none" xmlns="http://www.w3.org/2000/svg">
<path d="M5.104 3.302H6.996V4.534C7.62667 4.59267 8.272 4.732 8.932 4.952C9.592 5.172 10.2373 5.48 10.868 5.876L9.218 7.636C8.88067 7.47467 8.52133 7.328 8.14 7.196C7.77333 7.04933 7.392 6.94667 6.996 6.888V10.98C7.89067 11.244 8.65333 11.552 9.284 11.904C9.91467 12.256 10.3913 12.718 10.714 13.29C11.0513 13.8473 11.22 14.588 11.22 15.512C11.22 16.304 11.0293 17.03 10.648 17.69C10.2813 18.3353 9.77533 18.878 9.13 19.318C8.49933 19.758 7.788 20.0367 6.996 20.154V21.342H5.104V20.132C4.29733 20 3.51267 19.7433 2.75 19.362C2.002 18.966 1.37867 18.504 0.88 17.976L2.64 16.304C2.97733 16.6413 3.35867 16.9273 3.784 17.162C4.224 17.3967 4.664 17.5653 5.104 17.668V12.894C4.20933 12.6007 3.43933 12.2633 2.794 11.882C2.16333 11.486 1.694 11.002 1.386 10.43C1.09267 9.84333 0.99 9.11733 1.078 8.252C1.19533 7.152 1.62067 6.294 2.354 5.678C3.08733 5.04733 4.004 4.666 5.104 4.534V3.302ZM3.454 8.538C3.43933 9.05133 3.57867 9.44733 3.872 9.726C4.18 9.99 4.59067 10.21 5.104 10.386V6.91C4.64933 7.01267 4.26067 7.196 3.938 7.46C3.63 7.724 3.46867 8.08333 3.454 8.538ZM8.866 15.512C8.866 15.0133 8.69733 14.5953 8.36 14.258C8.03733 13.906 7.58267 13.6347 6.996 13.444V17.69C7.53867 17.5433 7.986 17.272 8.338 16.876C8.69 16.48 8.866 16.0253 8.866 15.512ZM18.5857 20H16.2757V7.416L14.5597 9.396L12.9757 7.856L15.9457 4.6H18.5857V20ZM31.5428 16.018H29.3428V20H27.0108V16.018H20.3448V13.972L26.0648 4.6H29.3428V13.752H31.5428V16.018ZM27.0108 13.752V7.46H26.8348L22.9408 13.752H27.0108ZM38.5139 4.446C39.4673 4.446 40.3326 4.688 41.1099 5.172C41.9019 5.64133 42.5253 6.272 42.9799 7.064C43.4493 7.856 43.6839 8.736 43.6839 9.704C43.6839 10.9653 43.4713 12.1533 43.0459 13.268C42.6206 14.368 41.9899 15.468 41.1539 16.568C40.7139 17.14 40.2226 17.712 39.6799 18.284C39.1373 18.856 38.5726 19.428 37.9859 20H34.9719C35.5293 19.428 36.1086 18.8413 36.7099 18.24C37.3113 17.624 37.8759 17.0007 38.4039 16.37C38.9466 15.7393 39.4013 15.1013 39.7679 14.456C38.9906 14.764 38.2206 14.8593 37.4579 14.742C36.6953 14.6247 35.9986 14.3313 35.3679 13.862C34.7373 13.3927 34.2313 12.7987 33.8499 12.08C33.4833 11.3613 33.2999 10.5693 33.2999 9.704C33.2999 8.70667 33.5346 7.812 34.0039 7.02C34.4879 6.228 35.1259 5.60467 35.9179 5.15C36.7099 4.68067 37.5753 4.446 38.5139 4.446ZM38.4919 6.888C37.9786 6.888 37.5093 7.01267 37.0839 7.262C36.6586 7.51133 36.3213 7.84867 36.0719 8.274C35.8226 8.69933 35.6979 9.176 35.6979 9.704C35.6979 10.2467 35.8226 10.7307 36.0719 11.156C36.3359 11.5813 36.6733 11.9187 37.0839 12.168C37.5093 12.4173 37.9786 12.542 38.4919 12.542C38.9906 12.542 39.4526 12.4173 39.8779 12.168C40.3033 11.9187 40.6406 11.5813 40.8899 11.156C41.1539 10.716 41.2859 10.232 41.2859 9.704C41.2859 9.19067 41.1539 8.72133 40.8899 8.296C40.6406 7.87067 40.3033 7.53333 39.8779 7.284C39.4526 7.02 38.9906 6.888 38.4919 6.888Z" fill="white"/>
<line x1="0.660634" y1="20.0593" x2="43.9759" y2="4.43221" stroke="white" stroke-width="2"/>
</svg>
