<svg width="117" height="138" viewBox="0 0 117 138" fill="none" xmlns="http://www.w3.org/2000/svg">
<path d="M62 137.334L60.2917 116.834H58.5833C42.4111 116.834 28.6875 111.196 17.4125 99.9212C6.1375 88.6462 0.5 74.9228 0.5 58.7503C0.5 42.5781 6.1375 28.8545 17.4125 17.5795C28.6875 6.30449 42.4111 0.666992 58.5833 0.666992C66.6692 0.666992 74.2132 2.1749 81.2153 5.19066C88.2215 8.21099 94.3743 12.3679 99.6722 17.6615C104.966 22.9596 109.121 29.1096 112.136 36.1115C115.156 43.1179 116.667 50.6642 116.667 58.7503C116.667 67.292 115.273 75.492 112.485 83.3503C109.692 91.2087 105.877 98.4978 101.039 105.217C96.196 111.936 90.4451 118.029 83.7847 123.496C77.1201 128.963 69.8583 133.575 62 137.334ZM58.4125 96.1628C60.3484 96.1628 62 95.4795 63.3667 94.1128C64.7333 92.7462 65.4167 91.0945 65.4167 89.1587C65.4167 87.2228 64.7333 85.5712 63.3667 84.2045C62 82.8378 60.3484 82.1545 58.4125 82.1545C56.4766 82.1545 54.825 82.8378 53.4583 84.2045C52.0917 85.5712 51.4083 87.2228 51.4083 89.1587C51.4083 91.0945 52.0917 92.7462 53.4583 94.1128C54.825 95.4795 56.4766 96.1628 58.4125 96.1628ZM53.4583 74.467H63.7083C63.7083 71.0503 64.05 68.6587 64.7333 67.292C65.4167 65.9253 67.5808 63.4195 71.225 59.7753C73.275 57.7253 74.9833 55.5045 76.35 53.1128C77.7167 50.7212 78.4 48.1587 78.4 45.4253C78.4 39.617 76.4368 35.2596 72.5097 32.3532C68.5784 29.4512 63.9359 28.0003 58.5833 28.0003C53.5724 28.0003 49.3583 29.3943 45.9417 32.1823C42.525 34.9749 40.1333 38.3642 38.7667 42.3503L48.3333 46.1087C48.9025 44.1726 49.985 42.2637 51.5792 40.3823C53.1734 38.5054 55.5083 37.567 58.5833 37.567C61.6583 37.567 63.9659 38.4212 65.5055 40.1295C67.0409 41.8378 67.8083 43.717 67.8083 45.767C67.8083 47.7031 67.2391 49.4388 66.1 50.974C64.9609 52.5138 63.5942 54.0809 62 55.6753C58.0141 59.092 55.5951 61.7959 54.743 63.7865C53.8868 65.7818 53.4583 69.342 53.4583 74.467Z" fill="white"/>
</svg>
