<svg width="22" height="20" viewBox="0 0 22 20" fill="none" xmlns="http://www.w3.org/2000/svg">
<path d="M11.0001 0.275391C5.486 0.275391 1 4.67508 1 10.0831C1 15.4911 5.486 19.8908 11.0001 19.8908C16.5141 19.8908 21 15.4911 21 10.0831C21 4.67508 16.5141 0.275391 11.0001 0.275391ZM11.0001 18.2829C6.38993 18.2829 2.63933 14.6046 2.63933 10.0831C2.63933 5.56163 6.38993 1.88321 11.0001 1.88321C15.6101 1.88321 19.3607 5.56163 19.3607 10.0831C19.3607 14.6046 15.6101 18.2829 11.0001 18.2829Z" fill="white" stroke="white" stroke-width="0.209835"/>
<path d="M15.3259 6.31892L9.38852 12.1422L6.67391 9.47982C6.35378 9.16591 5.83483 9.16591 5.51471 9.47982C5.19464 9.7938 5.19464 10.3028 5.51471 10.6167L8.80891 13.8476C8.96898 14.0045 9.17875 14.0831 9.38852 14.0831C9.59829 14.0831 9.80806 14.0045 9.96812 13.8476L16.4851 7.4559C16.8052 7.14193 16.8052 6.63296 16.4851 6.31898C16.165 6.00501 15.646 6.00501 15.3259 6.31892Z" fill="white" stroke="white" stroke-width="0.209835"/>
</svg>
