<svg width="97" height="97" viewBox="0 0 97 97" fill="none" xmlns="http://www.w3.org/2000/svg">
<mask id="path-1-inside-1_204_508" fill="white">
<path d="M97 48.5C97 38.3513 93.8164 28.4583 87.8976 20.2143C81.9788 11.9704 73.623 5.79075 64.0071 2.54588C54.3911 -0.698986 43.9995 -0.845632 34.2959 2.1266C24.5922 5.09883 16.0653 11.0402 9.91626 19.1139C3.76718 27.1876 0.305693 36.9868 0.0193135 47.1314C-0.267065 57.276 2.63609 67.2549 8.31991 75.6627C14.0037 84.0704 22.1818 90.4833 31.7024 93.9982C41.2229 97.5132 51.6062 97.953 61.3899 95.2558L60.0438 90.3729C51.2818 92.7885 41.9829 92.3946 33.4566 89.2467C24.9303 86.0989 17.6063 80.3557 12.516 72.826C7.4258 65.2963 4.82583 56.3595 5.0823 47.2743C5.33877 38.1891 8.43876 29.4133 13.9457 22.1828C19.4526 14.9522 27.0889 9.63135 35.7792 6.96951C44.4695 4.30768 53.7759 4.43901 62.3876 7.34501C70.9993 10.251 78.4825 15.7853 83.7832 23.1683C89.0839 30.5513 91.935 39.4112 91.935 48.5H97Z"/>
</mask>
<path d="M97 48.5C97 38.3513 93.8164 28.4583 87.8976 20.2143C81.9788 11.9704 73.623 5.79075 64.0071 2.54588C54.3911 -0.698986 43.9995 -0.845632 34.2959 2.1266C24.5922 5.09883 16.0653 11.0402 9.91626 19.1139C3.76718 27.1876 0.305693 36.9868 0.0193135 47.1314C-0.267065 57.276 2.63609 67.2549 8.31991 75.6627C14.0037 84.0704 22.1818 90.4833 31.7024 93.9982C41.2229 97.5132 51.6062 97.953 61.3899 95.2558L60.0438 90.3729C51.2818 92.7885 41.9829 92.3946 33.4566 89.2467C24.9303 86.0989 17.6063 80.3557 12.516 72.826C7.4258 65.2963 4.82583 56.3595 5.0823 47.2743C5.33877 38.1891 8.43876 29.4133 13.9457 22.1828C19.4526 14.9522 27.0889 9.63135 35.7792 6.96951C44.4695 4.30768 53.7759 4.43901 62.3876 7.34501C70.9993 10.251 78.4825 15.7853 83.7832 23.1683C89.0839 30.5513 91.935 39.4112 91.935 48.5H97Z" fill="#D9D9D9" stroke="white" stroke-width="8" mask="url(#path-1-inside-1_204_508)"/>
</svg>
